# xmcd
#
# Track frame offsets: 
#        150
#        17287
#        30787
#        44287
#        57787
#        71287
#        84787
#        98287
#        111787
#        125287
#        138787
#        152287
#        165787
#        178330
#        191830
#        205330
#        218830
#        232330
#        245830
#        259330
#        272830
#        286330
#        299830
#
# Disc length: 4110 seconds
#
# Revision: 0
# Processed by: cddbd v1.5.2PL0 Copyright (c) Steve Scherf et al.
# Submitted via: ExactAudioCopy v1.0b1
#
DISCID=3c100c17
DTITLE=Robert G. Allen - Multiple Streams Of Internet Income CD6
DYEAR=2003
DGENRE=business
TTITLE0=How Ordinary People Make Extraordinary Money Online
TTITLE1=How Ordinary People Make Extraordinary Money Online
TTITLE2=How Ordinary People Make Extraordinary Money Online
TTITLE3=How Ordinary People Make Extraordinary Money Online
TTITLE4=How Ordinary People Make Extraordinary Money Online
TTITLE5=How Ordinary People Make Extraordinary Money Online
TTITLE6=How Ordinary People Make Extraordinary Money Online
TTITLE7=How Ordinary People Make Extraordinary Money Online
TTITLE8=How Ordinary People Make Extraordinary Money Online
TTITLE9=How Ordinary People Make Extraordinary Money Online
TTITLE10=How Ordinary People Make Extraordinary Money Online
TTITLE11=How Ordinary People Make Extraordinary Money Online
TTITLE12=How Ordinary People Make Extraordinary Money Online
TTITLE13=How Ordinary People Make Extraordinary Money Online
TTITLE14=How Ordinary People Make Extraordinary Money Online
TTITLE15=How Ordinary People Make Extraordinary Money Online
TTITLE16=How Ordinary People Make Extraordinary Money Online
TTITLE17=How Ordinary People Make Extraordinary Money Online
TTITLE18=How Ordinary People Make Extraordinary Money Online
TTITLE19=How Ordinary People Make Extraordinary Money Online
TTITLE20=How Ordinary People Make Extraordinary Money Online
TTITLE21=How Ordinary People Make Extraordinary Money Online
TTITLE22=How Ordinary People Make Extraordinary Money Online
EXTD=
EXTT0=
EXTT1=
EXTT2=
EXTT3=
EXTT4=
EXTT5=
EXTT6=
EXTT7=
EXTT8=
EXTT9=
EXTT10=
EXTT11=
EXTT12=
EXTT13=
EXTT14=
EXTT15=
EXTT16=
EXTT17=
EXTT18=
EXTT19=
EXTT20=
EXTT21=
EXTT22=
PLAYORDER=
